<svg width="21" height="24" viewBox="0 0 21 24" fill="none" xmlns="http://www.w3.org/2000/svg">
<path d="M19.527 14.7918L17.8041 13.0168L10.0509 5.02984C8.62204 3.56881 6.31552 3.57322 4.89199 5.03976C3.46845 6.5063 3.46417 8.88249 4.88236 10.3545L12.6351 18.3439C12.9522 18.6707 13.4666 18.6707 13.7838 18.3439C14.1009 18.017 14.1009 17.4873 13.7838 17.1605L6.03107 9.17113C5.23815 8.35427 5.23815 7.03012 6.03107 6.21325C6.82398 5.39638 8.1093 5.39638 8.90222 6.21325L16.6573 14.2002L18.3803 15.975C19.8077 17.4462 19.8072 19.8308 18.3794 21.3012C16.9514 22.7716 14.6368 22.7712 13.2094 21.3001L11.7739 19.8207L3.73382 11.5378L3.15938 10.9462C1.15159 8.81304 1.17709 5.41476 3.21645 3.31361C5.25599 1.21265 8.55463 1.18638 10.6252 3.25482L19.2395 12.1296C19.4448 12.3409 19.7439 12.4233 20.0241 12.346C20.3044 12.2686 20.5234 12.0432 20.5985 11.7544C20.6736 11.4656 20.5933 11.1576 20.3882 10.9462L11.7739 2.07159C9.0761 -0.695026 4.71364 -0.689881 2.02208 2.08317C-0.669653 4.85603 -0.674646 9.35027 2.01085 12.1296L10.6252 21.0041L12.0628 22.4835C14.1361 24.5351 17.4217 24.5009 19.4541 22.4064C21.4867 20.312 21.5189 16.9271 19.527 14.7918Z" fill="#1ABF3D"/>
</svg>
