<svg width="38" height="38" viewBox="0 0 38 38" fill="none" xmlns="http://www.w3.org/2000/svg">
<g clip-path="url(#clip0_444_15737)">
<path d="M19 0C22.7578 0 26.4313 1.11433 29.5558 3.20208C32.6804 5.28982 35.1156 8.25722 36.5537 11.729C37.9918 15.2008 38.368 19.0211 37.6349 22.7067C36.9018 26.3924 35.0922 29.7778 32.435 32.435C29.7778 35.0922 26.3923 36.9018 22.7067 37.6349C19.0211 38.368 15.2008 37.9918 11.729 36.5537C8.25721 35.1156 5.28982 32.6804 3.20207 29.5558C1.11433 26.4313 -7.62939e-06 22.7578 -7.62939e-06 19C0.00543976 13.9626 2.00897 9.133 5.57098 5.57099C9.13299 2.00898 13.9626 0.00544838 19 0ZM19 34.8333C22.1315 34.8333 25.1927 33.9047 27.7965 32.1649C30.4003 30.4251 32.4297 27.9523 33.6281 25.0592C34.8265 22.166 35.14 18.9824 34.5291 15.9111C33.9182 12.8397 32.4102 10.0185 30.1958 7.80414C27.9815 5.58981 25.1603 4.08183 22.0889 3.4709C19.0176 2.85997 15.834 3.17352 12.9408 4.37191C10.0477 5.5703 7.57485 7.59969 5.83506 10.2035C4.09527 12.8073 3.16666 15.8685 3.16666 19C3.17127 23.1978 4.8409 27.2224 7.80923 30.1908C10.7776 33.1591 14.8021 34.8287 19 34.8333Z" fill="#1ABF3D"/>
<path d="M18.9997 14.25C19.4196 14.25 19.8223 14.4168 20.1193 14.7137C20.4162 15.0107 20.583 15.4134 20.583 15.8333V28.5C20.583 28.9199 20.4162 29.3227 20.1193 29.6196C19.8223 29.9165 19.4196 30.0833 18.9997 30.0833C18.5797 30.0833 18.177 29.9165 17.8801 29.6196C17.5832 29.3227 17.4163 28.9199 17.4163 28.5V15.8333C17.4163 15.4134 17.5832 15.0107 17.8801 14.7137C18.177 14.4168 18.5797 14.25 18.9997 14.25Z" fill="#1ABF3D"/>
<path d="M18.9997 11.0834C18.1252 11.0834 17.4163 10.3745 17.4163 9.50008C17.4163 8.62563 18.1252 7.91675 18.9997 7.91675C19.8741 7.91675 20.583 8.62563 20.583 9.50008C20.583 10.3745 19.8741 11.0834 18.9997 11.0834Z" fill="#1ABF3D"/>
</g>
<defs>
<clipPath id="clip0_444_15737">
<rect width="38" height="38" fill="white" transform="matrix(-1 0 0 1 38 0)"/>
</clipPath>
</defs>
</svg>
