<svg width="15" height="15" viewBox="0 0 15 15" fill="none" xmlns="http://www.w3.org/2000/svg">
<g clip-path="url(#clip0_777_18999)">
<path d="M9.94561 7.98913H0.48913C0.219129 7.98913 0 7.77 0 7.49999C0 7.22999 0.219129 7.01086 0.48913 7.01086H9.94561C10.2156 7.01086 10.4347 7.22999 10.4347 7.49999C10.4347 7.77 10.2156 7.98913 9.94561 7.98913Z" fill="black"/>
<path d="M7.33667 10.5978C7.2114 10.5978 7.08625 10.5503 6.99096 10.4544C6.79989 10.2633 6.79989 9.95355 6.99096 9.76236L9.25402 7.49942L6.99096 5.23635C6.79989 5.04528 6.79989 4.7354 6.99096 4.54433C7.18214 4.35326 7.49191 4.35326 7.68298 4.54433L10.2916 7.15311C10.4827 7.34417 10.4827 7.65394 10.2916 7.84501L7.68298 10.4537C7.58708 10.5503 7.46194 10.5978 7.33667 10.5978Z" fill="black"/>
<path d="M7.82636 14.674C4.85826 14.674 2.2379 12.8883 1.14942 10.1243C1.0503 9.87389 1.17413 9.58956 1.42527 9.49044C1.67568 9.39264 1.96073 9.51456 2.05985 9.76701C2.99966 12.1533 5.26332 13.6957 7.82636 13.6957C11.2424 13.6957 14.022 10.916 14.022 7.5C14.022 4.08397 11.2424 1.30431 7.82636 1.30431C5.26332 1.30431 2.99966 2.8467 2.05985 5.233C1.96002 5.48544 1.67568 5.60737 1.42527 5.50957C1.17413 5.41045 1.0503 5.12612 1.14942 4.8757C2.2379 2.11169 4.85826 0.32605 7.82636 0.32605C11.7818 0.32605 15.0003 3.54457 15.0003 7.5C15.0003 11.4554 11.7818 14.674 7.82636 14.674Z" fill="black"/>
</g>
<defs>
<clipPath id="clip0_777_18999">
<rect width="15" height="15" fill="white"/>
</clipPath>
</defs>
</svg>
