<svg width="14" height="14" viewBox="0 0 14 14" fill="none" xmlns="http://www.w3.org/2000/svg">
<path d="M6.95582 0.00224658V0C6.97087 0 6.98559 0.000898631 7.0003 0.000898631C7.01502 0.000898631 7.02973 0 7.04479 0V0.00224658C10.0526 0.0500987 12.4766 2.50145 12.4766 5.52074C12.4766 9.58941 7.69966 13.4513 7.0003 14C6.30083 13.4514 1.52405 9.58929 1.52405 5.52074C1.52405 2.50145 3.94788 0.0500987 6.95582 0.00224658ZM6.95582 7.89549C8.52966 7.89549 9.80527 6.6201 9.80527 5.04649C9.80527 3.47242 8.52966 2.19682 6.95582 2.19682C5.38198 2.19682 4.10626 3.47242 4.10626 5.04649C4.10626 6.6201 5.38198 7.89549 6.95582 7.89549Z" fill="#528479"/>
</svg>
